<svg width="40" height="40" viewBox="0 0 40 40" fill="none" xmlns="http://www.w3.org/2000/svg">
<g clip-path="url(#clip0_1_557)">
<rect width="39.0559" height="39.0559" rx="19.528" fill="#87C445"/>
<mask id="mask0_1_557" style="mask-type:alpha" maskUnits="userSpaceOnUse" x="0" y="0" width="40" height="40">
<rect width="39.0559" height="39.0559" fill="#D9D9D9"/>
</mask>
<g mask="url(#mask0_1_557)">
<path d="M19.5308 30.5157C19.1848 30.5157 18.895 30.3988 18.6613 30.1649C18.4277 29.931 18.3109 29.6411 18.3109 29.2953V20.7518H9.76733C9.42152 20.7518 9.13167 20.6348 8.89777 20.4007C8.66384 20.1667 8.54688 19.8767 8.54688 19.5308C8.54688 19.1848 8.66384 18.895 8.89777 18.6613C9.13167 18.4277 9.42152 18.3109 9.76733 18.3109H18.3109V9.76733C18.3109 9.42152 18.4279 9.13166 18.6619 8.89773C18.8959 8.66383 19.1859 8.54688 19.5318 8.54688C19.8778 8.54688 20.1676 8.66383 20.4013 8.89773C20.6349 9.13166 20.7518 9.42152 20.7518 9.76733V18.3109H29.2953C29.6411 18.3109 29.931 18.4279 30.1649 18.6619C30.3988 18.8959 30.5157 19.1859 30.5157 19.5318C30.5157 19.8778 30.3988 20.1676 30.1649 20.4013C29.931 20.6349 29.6411 20.7518 29.2953 20.7518H20.7518V29.2953C20.7518 29.6411 20.6348 29.931 20.4008 30.1649C20.1667 30.3988 19.8767 30.5157 19.5308 30.5157Z" fill="#060A10"/>
</g>
</g>
<defs>
<clipPath id="clip0_1_557">
<rect width="39.0559" height="39.0559" rx="19.528" fill="white"/>
</clipPath>
</defs>
</svg>
