<svg width="18" height="18" viewBox="0 0 18 18" fill="none" xmlns="http://www.w3.org/2000/svg">
<mask id="mask0_1_595" style="mask-type:alpha" maskUnits="userSpaceOnUse" x="0" y="0" width="18" height="18">
<rect width="18" height="18" fill="#D9D9D9"/>
</mask>
<g mask="url(#mask0_1_595)">
<path d="M9 12.5481C9.17163 12.5481 9.3155 12.49 9.43162 12.3739C9.54775 12.2577 9.60581 12.1139 9.60581 11.9423C9.60581 11.7706 9.54775 11.6268 9.43162 11.5106C9.3155 11.3946 9.17163 11.3366 9 11.3366C8.82837 11.3366 8.6845 11.3946 8.56838 11.5106C8.45225 11.6268 8.39419 11.7706 8.39419 11.9423C8.39419 12.1139 8.45225 12.2577 8.56838 12.3739C8.6845 12.49 8.82837 12.5481 9 12.5481ZM8.4375 9.80775H9.5625V5.30775H8.4375V9.80775ZM9.00131 16.125C8.01581 16.125 7.0895 15.938 6.22237 15.564C5.35525 15.19 4.601 14.6824 3.95962 14.0413C3.31825 13.4002 2.81044 12.6463 2.43619 11.7795C2.06206 10.9128 1.875 9.98669 1.875 9.00131C1.875 8.01581 2.062 7.0895 2.436 6.22237C2.81 5.35525 3.31756 4.601 3.95869 3.95962C4.59981 3.31825 5.35375 2.81044 6.2205 2.43619C7.08725 2.06206 8.01331 1.875 8.99869 1.875C9.98419 1.875 10.9105 2.062 11.7776 2.436C12.6448 2.81 13.399 3.31756 14.0404 3.95869C14.6818 4.59981 15.1896 5.35375 15.5638 6.2205C15.9379 7.08725 16.125 8.01331 16.125 8.99869C16.125 9.98419 15.938 10.9105 15.564 11.7776C15.19 12.6448 14.6824 13.399 14.0413 14.0404C13.4002 14.6818 12.6463 15.1896 11.7795 15.5638C10.9128 15.9379 9.98669 16.125 9.00131 16.125ZM9 15C10.675 15 12.0938 14.4187 13.2563 13.2563C14.4187 12.0938 15 10.675 15 9C15 7.325 14.4187 5.90625 13.2563 4.74375C12.0938 3.58125 10.675 3 9 3C7.325 3 5.90625 3.58125 4.74375 4.74375C3.58125 5.90625 3 7.325 3 9C3 10.675 3.58125 12.0938 4.74375 13.2563C5.90625 14.4187 7.325 15 9 15Z" fill="#ADB7D2"/>
</g>
</svg>
