<svg width="24" height="24" viewBox="0 0 24 24" fill="none" xmlns="http://www.w3.org/2000/svg">
<mask id="mask0_921_48" style="mask-type:alpha" maskUnits="userSpaceOnUse" x="0" y="0" width="24" height="24">
<rect width="24" height="24" fill="#D9D9D9"/>
</mask>
<g mask="url(#mask0_921_48)">
<path d="M3.4 20.5C3.2 20.5 3.1 20.5 2.9 20.4C2.8 20.4 2.7 20.2 2.6 20.1C2.6 20 2.5 19.8 2.5 19.7C2.5 19.5 2.5 19.4 2.6 19.2L11.2 4.4C11.2 4.2 11.4 4.1 11.5 4.1C11.6 4.1 11.8 4 11.9 4C12 4 12.2 4 12.3 4.1C12.4 4.1 12.6 4.3 12.6 4.4L21.2 19.2C21.2 19.4 21.3 19.5 21.3 19.7C21.3 19.9 21.3 20 21.2 20.1C21.2 20.2 21 20.3 20.9 20.4C20.8 20.4 20.6 20.5 20.4 20.5H3.4ZM12 17.8C12.2 17.8 12.4 17.8 12.6 17.6C12.8 17.4 12.8 17.3 12.8 17C12.8 16.7 12.8 16.6 12.6 16.4C12.4 16.2 12.3 16.2 12 16.2C11.7 16.2 11.6 16.2 11.4 16.4C11.2 16.6 11.2 16.7 11.2 17C11.2 17.3 11.2 17.4 11.4 17.6C11.6 17.8 11.7 17.8 12 17.8ZM12 15.2C12.2 15.2 12.4 15.2 12.5 15C12.6 14.9 12.7 14.7 12.7 14.5V11C12.7 10.8 12.7 10.6 12.5 10.5C12.4 10.4 12.2 10.3 12 10.3C11.8 10.3 11.6 10.3 11.5 10.5C11.4 10.6 11.3 10.8 11.3 11V14.5C11.3 14.7 11.3 14.9 11.5 15C11.6 15.1 11.8 15.2 12 15.2Z" fill="#F0F0F0"/>
</g>
</svg>
