<svg width="16" height="123" viewBox="0 0 16 123" fill="none" xmlns="http://www.w3.org/2000/svg">
<g clip-path="url(#clip0_1_978)">
<path d="M8.42774 37.4743L8.42773 -7" stroke="#212637" stroke-width="2.49612"/>
<path d="M8.42773 131.171V80.4688" stroke="#212637" stroke-width="2.49612"/>
<rect x="2.18359" y="59.3457" width="12" height="2" fill="#184187"/>
<path d="M15.541 61.5C15.8866 61.5002 16.1661 61.7732 16.1807 62.1152H16.1836C16.1836 62.1198 16.1817 62.1243 16.1816 62.1289C16.1817 62.1335 16.1836 62.138 16.1836 62.1426H16.1807C16.1663 62.4848 15.8867 62.7576 15.541 62.7578H14.2109V89.2578C14.2109 90.6364 13.0934 91.7539 11.7148 91.7539H4.62793C3.24937 91.7539 2.13185 90.6364 2.13184 89.2578V62.7578H0.734375C0.388651 62.7576 0.1091 62.4848 0.0947266 62.1426H0.0917969C0.0917993 62.138 0.092676 62.1335 0.0927734 62.1289C0.0926784 62.1244 0.0917969 62.1198 0.0917969 62.1152H0.0947266C0.109274 61.7732 0.388767 61.5002 0.734375 61.5H15.541Z" fill="#007AFF"/>
<path d="M0.734375 59.1211C0.388734 59.121 0.109278 58.848 0.0947265 58.5059L0.0917968 58.5059C0.0917968 58.5013 0.0936546 58.4967 0.09375 58.4922C0.0936527 58.4876 0.0917988 58.4831 0.0917968 58.4785L0.0947265 58.4785C0.109102 58.1363 0.388618 57.8634 0.734375 57.8633L2.06445 57.8633L2.06445 31.4121C2.06446 30.0336 3.18199 28.916 4.56055 28.916L11.6475 28.916C13.026 28.9161 14.1435 30.0336 14.1436 31.4121L14.1436 57.8633L15.541 57.8633C15.8867 57.8635 16.1663 58.1363 16.1807 58.4785L16.1836 58.4785C16.1836 58.4831 16.1827 58.4876 16.1826 58.4922C16.1827 58.4967 16.1836 58.5013 16.1836 58.5059L16.1807 58.5059C16.1661 58.8479 15.8866 59.1209 15.541 59.1211L0.734375 59.1211Z" fill="#007AFF"/>
</g>
<defs>
<clipPath id="clip0_1_978">
<rect width="16" height="123" fill="white"/>
</clipPath>
</defs>
</svg>
