<svg width="18" height="18" viewBox="0 0 18 18" fill="none" xmlns="http://www.w3.org/2000/svg">
<mask id="mask0_1_600" style="mask-type:alpha" maskUnits="userSpaceOnUse" x="0" y="0" width="18" height="18">
<rect width="18" height="18" fill="#D9D9D9"/>
</mask>
<g mask="url(#mask0_1_600)">
<path d="M15.5625 9.5625L11.4375 9.5625V8.4375H12.9375L12.9375 2.4375H14.0625L14.0625 8.4375H15.5625V9.5625ZM14.0625 15.5625H12.9375V11.4375L14.0625 11.4375V15.5625ZM11.0625 12.5625H9.5625V15.5625H8.4375V12.5625H6.9375L6.9375 11.4375H11.0625V12.5625ZM9.5625 9.5625H8.4375L8.4375 2.4375H9.5625L9.5625 9.5625ZM6.5625 6.5625H2.4375L2.4375 5.4375H3.9375L3.9375 2.4375H5.0625V5.4375H6.5625V6.5625ZM5.0625 15.5625H3.9375L3.9375 8.4375H5.0625L5.0625 15.5625Z" fill="#ADB7D2"/>
</g>
</svg>
