<svg width="18" height="18" viewBox="0 0 18 18" fill="none" xmlns="http://www.w3.org/2000/svg">
<mask id="mask0_1_585" style="mask-type:alpha" maskUnits="userSpaceOnUse" x="0" y="0" width="18" height="18">
<rect width="18" height="18" fill="#D9D9D9"/>
</mask>
<g mask="url(#mask0_1_585)">
<path d="M6.43275 13.9183L8.03362 11.2067H7.07456V9.13706L5.46638 11.8485H6.43275V13.9183ZM4.5 7.6875H9V3.98081C9 3.92306 8.97594 3.87019 8.92781 3.82219C8.87981 3.77406 8.82694 3.75 8.76919 3.75H4.73081C4.67306 3.75 4.62019 3.77406 4.57219 3.82219C4.52406 3.87019 4.5 3.92306 4.5 3.98081V7.6875ZM4.5 14.25H9V8.8125H4.5V14.25ZM3.375 15.375V3.98081C3.375 3.60194 3.50625 3.28125 3.76875 3.01875C4.03125 2.75625 4.35194 2.625 4.73081 2.625H8.76919C9.14806 2.625 9.46875 2.75625 9.73125 3.01875C9.99375 3.28125 10.125 3.60194 10.125 3.98081V8.85581H10.9614C11.3047 8.85581 11.5972 8.97669 11.8391 9.21844C12.081 9.46031 12.2019 9.75288 12.2019 10.0961V13.5578C12.2019 13.799 12.3003 14.0132 12.4969 14.2003C12.6935 14.3873 12.9149 14.4808 13.161 14.4808C13.4196 14.4808 13.6441 14.3873 13.8345 14.2003C14.025 14.0132 14.1203 13.799 14.1203 13.5578V6.70669H13.8966C13.7033 6.70669 13.542 6.64206 13.4126 6.51281C13.2834 6.38344 13.2188 6.22212 13.2188 6.02887V4.6875H13.5578V3.70669H14.2211V4.6875H14.9134V3.70669H15.5769V4.6875H15.9158V6.02887C15.9158 6.22212 15.8511 6.38344 15.7219 6.51281C15.5925 6.64206 15.4312 6.70669 15.2379 6.70669H15.0144V13.5578C15.0144 14.049 14.8346 14.4747 14.475 14.8348C14.1154 15.1949 13.6774 15.375 13.161 15.375C12.6571 15.375 12.2223 15.1949 11.8564 14.8348C11.4906 14.4747 11.3078 14.049 11.3078 13.5578V10.0961C11.3078 9.99038 11.2765 9.90625 11.214 9.84375C11.1515 9.78125 11.0673 9.75 10.9614 9.75H10.125V15.375H3.375Z" fill="#87C445"/>
</g>
</svg>
