<svg width="26" height="26" viewBox="0 0 26 26" fill="none" xmlns="http://www.w3.org/2000/svg">
<mask id="mask0_1_776" style="mask-type:alpha" maskUnits="userSpaceOnUse" x="0" y="0" width="26" height="26">
<rect width="25.6032" height="25.6032" fill="#D9D9D9"/>
</mask>
<g mask="url(#mask0_1_776)">
<path d="M10.3808 13.6223C10.1607 13.6223 9.9688 13.5406 9.80523 13.3772C9.64183 13.2136 9.56013 13.0217 9.56013 12.8016C9.56013 12.5815 9.64183 12.3897 9.80523 12.2261C9.9688 12.0627 10.1607 11.981 10.3808 11.981C10.6011 11.981 10.7929 12.0627 10.9563 12.2261C11.1197 12.3897 11.2014 12.5815 11.2014 12.8016C11.2014 13.0217 11.1197 13.2136 10.9563 13.3772C10.7929 13.5406 10.6011 13.6223 10.3808 13.6223ZM15.2224 13.6223C15.0021 13.6223 14.8103 13.5406 14.6469 13.3772C14.4835 13.2136 14.4018 13.0217 14.4018 12.8016C14.4018 12.5815 14.4835 12.3897 14.6469 12.2261C14.8103 12.0627 15.0021 11.981 15.2224 11.981C15.4426 11.981 15.6344 12.0627 15.798 12.2261C15.9614 12.3897 16.0431 12.5815 16.0431 12.8016C16.0431 13.0217 15.9614 13.2136 15.798 13.3772C15.6344 13.5406 15.4426 13.6223 15.2224 13.6223ZM4.8006 21.336V20.2692H5.8674V5.99063C5.8674 5.49954 6.03186 5.08954 6.36079 4.76061C6.68972 4.43168 7.09973 4.26721 7.59082 4.26721H18.0124C18.5035 4.26721 18.9135 4.43168 19.2424 4.76061C19.5713 5.08954 19.7358 5.49954 19.7358 5.99063V20.2692H20.8026V21.336H4.8006ZM6.9342 20.2692H12.2682V5.33401H7.59082C7.42653 5.33401 7.27602 5.40238 7.13929 5.53911C7.00256 5.67583 6.9342 5.82634 6.9342 5.99063V20.2692ZM13.335 20.2692H18.669V5.99063C18.669 5.82634 18.6006 5.67583 18.4639 5.53911C18.3272 5.40238 18.1767 5.33401 18.0124 5.33401H13.335V20.2692Z" fill="#F0F0F0"/>
</g>
</svg>
