<svg width="25" height="25" viewBox="0 0 25 25" fill="none" xmlns="http://www.w3.org/2000/svg">
<mask id="mask0_1_538" style="mask-type:alpha" maskUnits="userSpaceOnUse" x="0" y="0" width="25" height="25">
<rect x="0.664907" y="0.664907" width="23.0422" height="23.0422" fill="#D9D9D9" stroke="#343332" stroke-width="1.32981"/>
</mask>
<g mask="url(#mask0_1_538)">
<path d="M16.865 8.78241C17.0648 8.7876 17.2366 8.86203 17.3806 9.00604C17.5246 9.14997 17.5964 9.32431 17.5964 9.52948C17.5964 9.73466 17.5245 9.90896 17.3806 10.0529L12.8162 14.6164C12.7226 14.71 12.625 14.7765 12.5222 14.8146C12.4189 14.8529 12.3067 14.8712 12.1863 14.8713C12.0723 14.8713 11.9611 14.8521 11.8542 14.8137C11.7484 14.7755 11.6489 14.7098 11.5554 14.6164L6.97534 10.0373C6.83159 9.89346 6.76234 9.72216 6.76733 9.52264C6.77242 9.32258 6.84679 9.1502 6.99097 9.00604C7.1349 8.86211 7.30924 8.79025 7.5144 8.79022C7.71956 8.79022 7.8939 8.86217 8.03784 9.00604L12.1863 13.1545L12.198 13.1428L16.3494 8.99041C16.4933 8.84652 16.6653 8.77733 16.865 8.78241Z" fill="#F0F0F0" stroke="#F0F0F0" stroke-width="0.0332453"/>
</g>
</svg>
