<svg width="26" height="26" viewBox="0 0 26 26" fill="none" xmlns="http://www.w3.org/2000/svg">
<mask id="mask0_1_515" style="mask-type:alpha" maskUnits="userSpaceOnUse" x="0" y="0" width="26" height="26">
<rect width="25.7617" height="25.7617" fill="#D9D9D9"/>
</mask>
<g mask="url(#mask0_1_515)">
<path d="M9.20586 19.9196L11.497 16.0387H10.1244V13.0766L7.82278 16.9573H9.20586V19.9196ZM6.4397 11.002H12.8801V5.69696C12.8801 5.61431 12.8457 5.53864 12.7768 5.46994C12.7081 5.40106 12.6324 5.36662 12.5498 5.36662H6.77004C6.68739 5.36662 6.61171 5.40106 6.54301 5.46994C6.47414 5.53864 6.4397 5.61431 6.4397 5.69696V11.002ZM6.4397 20.3943H12.8801V12.6121H6.4397V20.3943ZM4.82959 22.0044V5.69696C4.82959 5.15471 5.01744 4.69574 5.39313 4.32005C5.76882 3.94436 6.22779 3.75652 6.77004 3.75652H12.5498C13.092 3.75652 13.551 3.94436 13.9267 4.32005C14.3024 4.69574 14.4902 5.15471 14.4902 5.69696V12.6741H15.6873C16.1786 12.6741 16.5973 12.8471 16.9435 13.1931C17.2897 13.5393 17.4628 13.958 17.4628 14.4492V19.4035C17.4628 19.7488 17.6035 20.0554 17.8849 20.3232C18.1663 20.5908 18.4831 20.7246 18.8354 20.7246C19.2055 20.7246 19.5268 20.5908 19.7993 20.3232C20.0719 20.0554 20.2083 19.7488 20.2083 19.4035V9.59825H19.8881C19.6115 9.59825 19.3807 9.50576 19.1955 9.32078C19.0105 9.13562 18.918 8.90474 18.918 8.62816V6.70838H19.4032V5.30463H20.3526V6.70838H21.3434V5.30463H22.2931V6.70838H22.778V8.62816C22.778 8.90474 22.6855 9.13562 22.5005 9.32078C22.3154 9.50576 22.0845 9.59825 21.8079 9.59825H21.488V19.4035C21.488 20.1066 21.2307 20.7159 20.716 21.2313C20.2013 21.7467 19.5744 22.0044 18.8354 22.0044C18.1142 22.0044 17.4918 21.7467 16.9682 21.2313C16.4447 20.7159 16.183 20.1066 16.183 19.4035V14.4492C16.183 14.2979 16.1383 14.1775 16.0488 14.088C15.9594 13.9986 15.8389 13.9539 15.6873 13.9539H14.4902V22.0044H4.82959Z" fill="#F0F0F0"/>
</g>
</svg>
