<svg width="19" height="19" viewBox="0 0 19 19" fill="none" xmlns="http://www.w3.org/2000/svg">
<mask id="mask0_1_1072" style="mask-type:alpha" maskUnits="userSpaceOnUse" x="0" y="0" width="19" height="19">
<rect x="0.516299" y="0.516299" width="17.8923" height="17.8923" fill="#D9D9D9" stroke="#343332" stroke-width="1.0326"/>
</mask>
<g mask="url(#mask0_1_1072)">
<path d="M7.09509 5.54742C7.09908 5.39222 7.15712 5.25891 7.26892 5.14703C7.38063 5.03531 7.51595 4.97915 7.67517 4.97906C7.83444 4.97906 7.96967 5.03535 8.08142 5.14703L11.6254 8.69098C11.698 8.76363 11.7491 8.83975 11.7787 8.91949C11.8084 8.99972 11.8236 9.08673 11.8236 9.18024C11.8236 9.26873 11.8085 9.35504 11.7787 9.43805C11.7491 9.52029 11.6979 9.59789 11.6254 9.67047L8.0697 13.2261C7.95792 13.3379 7.82442 13.3922 7.66931 13.3882C7.51416 13.3842 7.38075 13.3263 7.26892 13.2144C7.15721 13.1027 7.10201 12.9674 7.10193 12.8082C7.10193 12.649 7.15735 12.5136 7.26892 12.4019L10.4808 9.19L10.4896 9.18024L7.2572 5.94781C7.14542 5.83603 7.09115 5.70254 7.09509 5.54742Z" fill="#4C8AF0" stroke="#4C8AF0" stroke-width="0.025815"/>
</g>
</svg>
