<svg width="18" height="18" viewBox="0 0 18 18" fill="none" xmlns="http://www.w3.org/2000/svg">
<mask id="mask0_1_590" style="mask-type:alpha" maskUnits="userSpaceOnUse" x="0" y="0" width="18" height="18">
<rect width="18" height="18" fill="#D9D9D9"/>
</mask>
<g mask="url(#mask0_1_590)">
<path d="M8.4375 9.67781H9.5625V6H8.4375V9.67781ZM9 11.8558C9.17163 11.8558 9.3155 11.7978 9.43162 11.6816C9.54775 11.5655 9.60581 11.4216 9.60581 11.25C9.60581 11.0784 9.54775 10.9345 9.43162 10.8184C9.3155 10.7023 9.17163 10.6442 9 10.6442C8.82837 10.6442 8.6845 10.7023 8.56838 10.8184C8.45225 10.9345 8.39419 11.0784 8.39419 11.25C8.39419 11.4216 8.45225 11.5655 8.56838 11.6816C8.6845 11.7978 8.82837 11.8558 9 11.8558ZM3.375 14.1634V13.0386H4.73081V7.44225C4.73081 6.43363 5.04212 5.54181 5.66475 4.76681C6.28725 3.99181 7.0865 3.49612 8.0625 3.27975V2.8125C8.0625 2.55213 8.15356 2.33075 8.33569 2.14838C8.51781 1.96613 8.73894 1.875 8.99906 1.875C9.25931 1.875 9.48075 1.96613 9.66338 2.14838C9.84613 2.33075 9.9375 2.55213 9.9375 2.8125V3.27975C10.9135 3.49612 11.7128 3.99181 12.3353 4.76681C12.9579 5.54181 13.2692 6.43363 13.2692 7.44225V13.0386H14.625V14.1634H3.375ZM8.99869 16.2692C8.62556 16.2692 8.30656 16.1364 8.04169 15.8709C7.77669 15.6054 7.64419 15.2863 7.64419 14.9134H10.3558C10.3558 15.2875 10.2229 15.607 9.95719 15.8719C9.69144 16.1368 9.37194 16.2692 8.99869 16.2692ZM5.85581 13.0386H12.1442V7.44225C12.1442 6.574 11.8373 5.83294 11.2234 5.21906C10.6094 4.60506 9.86825 4.29806 9 4.29806C8.13175 4.29806 7.39063 4.60506 6.77663 5.21906C6.16275 5.83294 5.85581 6.574 5.85581 7.44225V13.0386Z" fill="#ADB7D2"/>
</g>
</svg>
