<svg width="20" height="20" viewBox="0 0 20 20" fill="none" xmlns="http://www.w3.org/2000/svg">
<mask id="mask0_921_75" style="mask-type:alpha" maskUnits="userSpaceOnUse" x="0" y="0" width="20" height="20">
<rect width="20" height="20" fill="#D9D9D9"/>
</mask>
<g mask="url(#mask0_921_75)">
<path d="M9.16681 14.793C8.98973 14.793 8.8413 14.733 8.72152 14.6132C8.60173 14.4934 8.54183 14.3449 8.54183 14.1677C8.54183 13.9905 8.60173 13.8421 8.72152 13.7225C8.8413 13.6028 8.98973 13.543 9.16681 13.543H10.8335C11.0106 13.543 11.159 13.6029 11.2788 13.7227C11.3986 13.8426 11.4585 13.9911 11.4585 14.1682C11.4585 14.3454 11.3986 14.4938 11.2788 14.6135C11.159 14.7331 11.0106 14.793 10.8335 14.793H9.16681ZM3.33348 6.1391C3.15639 6.1391 3.00796 6.07918 2.88818 5.95933C2.76839 5.83948 2.7085 5.69098 2.7085 5.51383C2.7085 5.33666 2.76839 5.18825 2.88818 5.0686C3.00796 4.94895 3.15639 4.88912 3.33348 4.88912H16.6668C16.8439 4.88912 16.9923 4.94905 17.1121 5.06889C17.2319 5.18873 17.2918 5.33723 17.2918 5.51439C17.2918 5.69155 17.2319 5.83995 17.1121 5.9596C16.9923 6.07927 16.8439 6.1391 16.6668 6.1391H3.33348ZM5.83348 10.466C5.65639 10.466 5.50796 10.4061 5.38818 10.2863C5.26839 10.1664 5.2085 10.0179 5.2085 9.84077C5.2085 9.6636 5.26839 9.51519 5.38818 9.39554C5.50796 9.27589 5.65639 9.21606 5.83348 9.21606H14.1668C14.3439 9.21606 14.4923 9.27598 14.6121 9.39583C14.7319 9.51566 14.7918 9.66416 14.7918 9.84133C14.7918 10.0185 14.7319 10.1669 14.6121 10.2865C14.4923 10.4062 14.3439 10.466 14.1668 10.466H5.83348Z" fill="#F0F0F0"/>
</g>
</svg>
