<svg width="24" height="24" viewBox="0 0 24 24" fill="none" xmlns="http://www.w3.org/2000/svg">
<mask id="mask0_921_22" style="mask-type:alpha" maskUnits="userSpaceOnUse" x="0" y="0" width="24" height="24">
<rect width="24" height="24" fill="#D9D9D9"/>
</mask>
<g mask="url(#mask0_921_22)">
</g>
<g clip-path="url(#clip0_921_22)">
<path d="M13.7375 8.1V4.4C13.7375 4.1 13.7375 3.9 14.0375 3.8C14.2375 3.6 14.4375 3.5 14.6375 3.5H20.0375C20.3375 3.5 20.5375 3.5 20.6375 3.8C20.8375 4 20.9375 4.2 20.9375 4.4V8.1C20.9375 8.4 20.9375 8.6 20.6375 8.7C20.4375 8.9 20.2375 9 20.0375 9H14.6375C14.3375 9 14.1375 9 14.0375 8.7C13.8375 8.5 13.7375 8.3 13.7375 8.1ZM3.9375 11.6V4.4C3.9375 4.1 3.9375 3.9 4.2375 3.8C4.4375 3.6 4.6375 3.5 4.8375 3.5H10.2375C10.5375 3.5 10.7375 3.5 10.8375 3.8C11.0375 4 11.1375 4.2 11.1375 4.4V11.6C11.1375 11.9 11.1375 12.1 10.8375 12.2C10.6375 12.4 10.4375 12.5 10.2375 12.5H4.8375C4.5375 12.5 4.3375 12.5 4.2375 12.2C4.0375 12 3.9375 11.8 3.9375 11.6ZM13.7375 19.6V12.4C13.7375 12.1 13.7375 11.9 14.0375 11.8C14.2375 11.6 14.4375 11.5 14.6375 11.5H20.0375C20.3375 11.5 20.5375 11.5 20.6375 11.8C20.8375 12 20.9375 12.2 20.9375 12.4V19.6C20.9375 19.9 20.9375 20.1 20.6375 20.2C20.4375 20.4 20.2375 20.5 20.0375 20.5H14.6375C14.3375 20.5 14.1375 20.5 14.0375 20.2C13.8375 20 13.7375 19.8 13.7375 19.6ZM3.9375 19.6V15.9C3.9375 15.6 3.9375 15.4 4.2375 15.3C4.4375 15.1 4.6375 15 4.8375 15H10.2375C10.5375 15 10.7375 15 10.8375 15.3C11.0375 15.5 11.1375 15.7 11.1375 15.9V19.6C11.1375 19.9 11.1375 20.1 10.8375 20.2C10.6375 20.4 10.4375 20.5 10.2375 20.5H4.8375C4.5375 20.5 4.3375 20.5 4.2375 20.2C4.0375 20 3.9375 19.8 3.9375 19.6Z" fill="#F0F0F0"/>
</g>
<defs>
<clipPath id="clip0_921_22">
<rect width="18" height="18" fill="white" transform="translate(3.4375 3)"/>
</clipPath>
</defs>
</svg>
