<svg width="24" height="18" viewBox="0 0 24 18" fill="none" xmlns="http://www.w3.org/2000/svg">
<path d="M2.32811 13.4505L3.17105 14.611C3.23396 14.5507 3.30545 14.4943 3.37833 14.4428C3.49457 14.36 3.63553 14.2211 3.75625 14.347C4.14201 14.7476 4.42074 14.4133 4.71879 14.2344C5.28043 13.8981 5.83844 13.5564 6.38733 13.2014C6.64857 13.0318 6.89302 12.9501 7.18151 13.1267C7.64093 13.4106 8.01634 13.2302 8.4138 12.9466C9.31649 12.3042 9.96688 11.4548 10.5559 10.5354C11.3186 9.34316 12.1568 8.20744 13.3681 7.41625C14.1156 6.92633 15.2764 7.02215 15.7932 7.75138C16.5577 8.83386 17.539 9.29465 18.838 9.13199C19.0389 9.10734 19.2473 9.1285 19.4507 9.13936C20.0384 9.16764 20.3191 8.89671 20.3271 8.30515C20.3511 6.74995 20.3815 5.19829 20.4196 3.64342C20.434 3.06709 20.1622 2.84001 19.5995 2.83986C18.6396 2.84084 17.6767 2.80856 16.7162 2.78841L16.714 2.79967C15.9393 2.78468 15.1599 2.79447 14.3845 2.74665C13.2418 2.67767 12.2692 3.02647 11.3874 3.75458C9.66865 5.17263 7.91942 6.55451 6.1838 7.95067C5.19604 8.7449 4.20645 9.53646 3.22233 10.3361C2.93777 10.5665 2.6217 10.9007 3.05893 11.1665C3.63183 11.5165 3.2708 11.695 3.04692 11.9744C2.86267 12.2054 2.42224 12.4084 2.56228 12.6897C2.77325 13.113 2.54742 13.2683 2.32854 13.4483L2.32811 13.4505Z" fill="#D1D1D6"/>
<path d="M23.21 6.10812C23.1969 6.73841 23.1812 7.37053 23.1749 8.00212C23.172 8.40787 22.9758 8.60386 22.5722 8.58975C22.5303 8.58876 22.4903 8.59045 22.4507 8.58989C20.2713 8.5212 20.6846 8.8267 20.6828 6.82056C20.682 5.94479 20.7398 5.06851 20.7224 4.19423C20.7124 3.64825 20.9344 3.46418 21.4534 3.50969C21.8576 3.54493 22.2678 3.53693 22.6754 3.54246C23.0829 3.54798 23.2641 3.7484 23.2518 4.15468C23.2322 4.80707 23.2247 5.45711 23.2096 6.11037L23.21 6.10812Z" fill="#D1D1D6"/>
<path d="M5.69678 13.7688C4.94456 14.3326 4.19276 14.894 3.44053 15.4578C2.81664 15.9853 1.87193 15.9191 1.32066 15.3094L0.740344 14.6684C0.185003 14.0556 0.230997 13.1187 0.844384 12.5728C1.58332 11.822 2.31958 11.0731 3.05851 10.3224C3.93869 11.4714 4.81661 12.6199 5.69678 13.7688Z" fill="#8E8E93"/>
</svg>
