<svg width="44" height="49" viewBox="0 0 44 49" fill="none" xmlns="http://www.w3.org/2000/svg">
<rect x="0.5" y="0.5" width="43" height="48" rx="4.5" stroke="url(#paint0_linear_1_795)"/>
<path d="M31.5996 34.1815H11.8035C8.59809 34.1815 5.99963 36.5075 5.99963 39.3769C5.99963 42.2462 8.59809 44.5723 11.8035 44.5723H31.5996C34.8049 44.5723 37.4034 42.2462 37.4034 39.3769C37.4034 36.5075 34.8049 34.1815 31.5996 34.1815Z" fill="#F9FAFA" stroke="#1B1F27" stroke-width="1.05189" stroke-miterlimit="10"/>
<path d="M14.5959 9.00043C13.8603 9.00043 13.1812 9.30224 12.653 9.81154C11.0119 11.4904 7.84294 15.4327 8.18247 20.8087C8.5786 27.3731 14.0677 33.8808 21.5187 34.0129C29.2148 34.1449 34.8548 27.4108 35.3076 20.771C35.666 15.5082 32.6667 11.5658 31.0822 9.84927C30.5729 9.30224 29.8561 8.98157 29.1016 8.98157H14.5959V9.00043Z" fill="#F9FAFA" stroke="#1B1F27" stroke-width="1.05189" stroke-miterlimit="10"/>
<path d="M31.9968 42.5414C33.6533 42.5414 34.9962 41.1985 34.9962 39.542C34.9962 37.8855 33.6533 36.5426 31.9968 36.5426C30.3403 36.5426 28.9974 37.8855 28.9974 39.542C28.9974 41.1985 30.3403 42.5414 31.9968 42.5414Z" fill="#1B1F27"/>
<path d="M11.2254 42.5414C12.882 42.5414 14.2248 41.1985 14.2248 39.542C14.2248 37.8855 12.882 36.5426 11.2254 36.5426C9.56894 36.5426 8.22607 37.8855 8.22607 39.542C8.22607 41.1985 9.56894 42.5414 11.2254 42.5414Z" fill="#1B1F27"/>
<mask id="mask0_1_795" style="mask-type:alpha" maskUnits="userSpaceOnUse" x="7" y="8" width="29" height="27">
<path d="M14.5959 8.96601C13.8603 8.96601 13.1812 9.26782 12.653 9.77712C11.0119 11.4559 7.84294 15.3983 8.18247 20.7743C8.5786 27.3386 14.0677 33.8464 21.5187 33.9784C29.2148 34.1105 34.8548 27.3764 35.3076 20.7366C35.666 15.4738 32.6667 11.5314 31.0822 9.81484C30.5729 9.26782 29.8561 8.94714 29.1016 8.94714H14.5959V8.96601Z" fill="#F1F3F9" stroke="#1B1F27" stroke-width="1.05189" stroke-miterlimit="10"/>
</mask>
<g mask="url(#mask0_1_795)">
<g style="mix-blend-mode:soft-light" opacity="0.5">
<path d="M37.9281 27.1582C38.2305 26.5336 39.3652 23.9597 38.185 21.5618C37.1769 19.5118 34.8264 18.3 32.7211 18.2289C28.3997 18.0806 27.3461 22.8092 23.2046 22.7084C20.437 22.6412 20.3026 20.5181 15.9931 19.7748C12.8736 19.2371 10.45 19.9191 9.8649 20.095C6.84628 21.0024 4.9327 22.8052 4.0708 23.7344C5.04736 25.3593 8.22611 30.163 14.5085 32.4977C19.9072 34.5042 24.4757 33.5256 27.5497 32.8673C31.1851 32.0885 36.0441 31.0487 37.9281 27.1602V27.1582Z" fill="#F9FAFA"/>
</g>
</g>
<path d="M18.1999 17.4264C19.0425 17.4264 19.7256 16.7433 19.7256 15.9007C19.7256 15.0582 19.0425 14.3751 18.1999 14.3751C17.3574 14.3751 16.6743 15.0582 16.6743 15.9007C16.6743 16.7433 17.3574 17.4264 18.1999 17.4264Z" fill="#1B1F27"/>
<path d="M25.9192 17.4264C26.7618 17.4264 27.4448 16.7433 27.4448 15.9007C27.4448 15.0582 26.7618 14.3751 25.9192 14.3751C25.0766 14.3751 24.3936 15.0582 24.3936 15.9007C24.3936 16.7433 25.0766 17.4264 25.9192 17.4264Z" fill="#1B1F27"/>
<path d="M18.1994 29.0708C19.2932 29.0708 20.18 28.184 20.18 27.0902C20.18 25.9963 19.2932 25.1096 18.1994 25.1096C17.1055 25.1096 16.2188 25.9963 16.2188 27.0902C16.2188 28.184 17.1055 29.0708 18.1994 29.0708Z" fill="#1B1F27"/>
<path d="M25.8589 29.0708C26.9528 29.0708 27.8395 28.184 27.8395 27.0902C27.8395 25.9963 26.9528 25.1096 25.8589 25.1096C24.7651 25.1096 23.8783 25.9963 23.8783 27.0902C23.8783 28.184 24.7651 29.0708 25.8589 29.0708Z" fill="#1B1F27"/>
<path d="M14.2212 23.093C15.3151 23.093 16.2018 22.2063 16.2018 21.1124C16.2018 20.0185 15.3151 19.1318 14.2212 19.1318C13.1274 19.1318 12.2406 20.0185 12.2406 21.1124C12.2406 22.2063 13.1274 23.093 14.2212 23.093Z" fill="#1B1F27"/>
<path d="M22.0307 23.093C23.1245 23.093 24.0113 22.2063 24.0113 21.1124C24.0113 20.0185 23.1245 19.1318 22.0307 19.1318C20.9368 19.1318 20.05 20.0185 20.05 21.1124C20.05 22.2063 20.9368 23.093 22.0307 23.093Z" fill="#1B1F27"/>
<path d="M29.2902 23.093C30.3841 23.093 31.2708 22.2063 31.2708 21.1124C31.2708 20.0185 30.3841 19.1318 29.2902 19.1318C28.1963 19.1318 27.3096 20.0185 27.3096 21.1124C27.3096 22.2063 28.1963 23.093 29.2902 23.093Z" fill="#1B1F27"/>
<defs>
<linearGradient id="paint0_linear_1_795" x1="22" y1="0" x2="22" y2="49" gradientUnits="userSpaceOnUse">
<stop stop-color="#F9FAFA"/>
<stop offset="1" stop-color="#939494" stop-opacity="0"/>
</linearGradient>
</defs>
</svg>
