<svg width="40" height="40" viewBox="0 0 40 40" fill="none" xmlns="http://www.w3.org/2000/svg">
<mask id="mask0_1_560" style="mask-type:alpha" maskUnits="userSpaceOnUse" x="0" y="0" width="40" height="40">
<rect width="39.0559" height="39.0559" fill="#D9D9D9"/>
</mask>
<g mask="url(#mask0_1_560)">
<path d="M19.512 28.6601C19.9767 28.6601 20.3691 28.4997 20.6894 28.1789C21.0096 27.858 21.1697 27.4653 21.1697 27.0006C21.1697 26.536 21.0093 26.1435 20.6885 25.8233C20.3677 25.5031 19.9749 25.3429 19.5103 25.3429C19.0456 25.3429 18.6532 25.5033 18.3329 25.8242C18.0127 26.145 17.8525 26.5377 17.8525 27.0024C17.8525 27.4671 18.0129 27.8595 18.3338 28.1798C18.6546 28.5 19.0473 28.6601 19.512 28.6601ZM19.5326 34.9817C17.3944 34.9817 15.3846 34.5759 13.5032 33.7644C11.6218 32.9529 9.9852 31.8517 8.59348 30.4606C7.20173 29.0694 6.09993 27.4336 5.28808 25.553C4.47624 23.6724 4.07031 21.663 4.07031 19.5248C4.07031 17.3866 4.47606 15.3768 5.28756 13.4954C6.09905 11.614 7.20035 9.97738 8.59144 8.58566C9.98256 7.19392 11.6184 6.09212 13.499 5.28027C15.3796 4.46842 17.389 4.0625 19.5272 4.0625C21.6654 4.0625 23.6752 4.46825 25.5566 5.27974C27.438 6.09124 29.0746 7.19253 30.4663 8.58363C31.8581 9.97475 32.9599 11.6106 33.7717 13.4912C34.5836 15.3718 34.9895 17.3812 34.9895 19.5194C34.9895 21.6576 34.5837 23.6674 33.7723 25.5488C32.9608 27.4302 31.8595 29.0668 30.4684 30.4585C29.0772 31.8503 27.4414 32.9521 25.5608 33.7639C23.6802 34.5758 21.6708 34.9817 19.5326 34.9817ZM19.5299 32.5407C23.1643 32.5407 26.2426 31.2796 28.765 28.7572C31.2874 26.2348 32.5485 23.1565 32.5485 19.5221C32.5485 15.8877 31.2874 12.8094 28.765 10.287C26.2426 7.76463 23.1643 6.50345 19.5299 6.50345C15.8955 6.50345 12.8172 7.76463 10.2948 10.287C7.77245 12.8094 6.51127 15.8877 6.51127 19.5221C6.51127 23.1565 7.77245 26.2348 10.2948 28.7572C12.8172 31.2796 15.8955 32.5407 19.5299 32.5407ZM19.6617 12.5559C20.4125 12.5559 21.0623 12.7922 21.611 13.2649C22.1597 13.7376 22.4341 14.3285 22.4341 15.0376C22.4341 15.6343 22.2588 16.1684 21.9083 16.6398C21.5578 17.1114 21.1573 17.5505 20.7066 17.9574C20.1159 18.4814 19.5958 19.0578 19.1463 19.6867C18.6969 20.3155 18.4565 21.0159 18.4252 21.7879C18.4148 22.0841 18.5191 22.3324 18.7382 22.5327C18.9572 22.7329 19.2128 22.8331 19.5049 22.8331C19.8178 22.8331 20.0828 22.7287 20.2998 22.5201C20.5167 22.3115 20.6554 22.0559 20.7159 21.7534C20.8244 21.1943 21.0555 20.6962 21.4091 20.2591C21.7628 19.822 22.1458 19.4064 22.5584 19.0122C23.1515 18.4342 23.6691 17.8038 24.1114 17.1213C24.5537 16.4387 24.7749 15.6774 24.7749 14.8373C24.7749 13.548 24.2669 12.4886 23.2508 11.6593C22.2348 10.83 21.0487 10.4154 19.6926 10.4154C18.7246 10.4154 17.8118 10.6297 16.9544 11.0585C16.0969 11.4872 15.4293 12.1126 14.9515 12.9346C14.8034 13.187 14.7558 13.4527 14.8089 13.7317C14.8619 14.0106 15.005 14.2224 15.2384 14.3671C15.5353 14.5324 15.8403 14.5796 16.1532 14.5087C16.4661 14.4377 16.7321 14.2594 16.9512 13.9735C17.2808 13.5458 17.6798 13.2026 18.1482 12.9439C18.6166 12.6852 19.1211 12.5559 19.6617 12.5559Z" fill="#ADB7D2"/>
</g>
</svg>
