<svg width="20" height="20" viewBox="0 0 20 20" fill="none" xmlns="http://www.w3.org/2000/svg">
<mask id="mask0_1_524" style="mask-type:alpha" maskUnits="userSpaceOnUse" x="0" y="0" width="20" height="20">
<rect width="20" height="20" fill="#D9D9D9"/>
</mask>
<g mask="url(#mask0_1_524)">
<path d="M3.75 15.8347V8.46281C3.75 8.22434 3.80333 7.99844 3.91 7.7851C4.01681 7.57163 4.16431 7.39587 4.3525 7.25781L9.09625 3.68406C9.35944 3.48323 9.66028 3.38281 9.99875 3.38281C10.3372 3.38281 10.6389 3.48323 10.9037 3.68406L15.6475 7.25781C15.8357 7.39587 15.9832 7.57163 16.09 7.7851C16.1967 7.99844 16.25 8.22434 16.25 8.46281V15.8347C16.25 16.1755 16.1269 16.4691 15.8806 16.7153C15.6344 16.9616 15.3408 17.0847 15 17.0847H12.3398C12.1263 17.0847 11.9474 17.0125 11.8031 16.868C11.6587 16.7237 11.5865 16.5448 11.5865 16.3314V12.2609C11.5865 12.0476 11.5143 11.8687 11.37 11.7243C11.2257 11.58 11.0468 11.5078 10.8333 11.5078H9.16667C8.95319 11.5078 8.77431 11.58 8.63 11.7243C8.48569 11.8687 8.41354 12.0476 8.41354 12.2609V16.3314C8.41354 16.5448 8.34132 16.7237 8.19688 16.868C8.05257 17.0125 7.87368 17.0847 7.66021 17.0847H5C4.65917 17.0847 4.36562 16.9616 4.11937 16.7153C3.87312 16.4691 3.75 16.1755 3.75 15.8347Z" fill="#ADB7D2"/>
</g>
</svg>
