<svg width="24" height="24" viewBox="0 0 24 24" fill="none" xmlns="http://www.w3.org/2000/svg">
<mask id="mask0_1_846" style="mask-type:alpha" maskUnits="userSpaceOnUse" x="0" y="0" width="24" height="24">
<rect width="24" height="24" fill="#D9D9D9"/>
</mask>
<g mask="url(#mask0_1_846)">
<path d="M12 20.9992C9.92183 20.9992 8.15233 20.2815 6.6915 18.8462C5.2305 17.4108 4.5 15.6635 4.5 13.6042C4.5 12.6213 4.69458 11.6812 5.08375 10.7839C5.47275 9.88641 6.01025 9.09024 6.69625 8.39541L12 3.19141L17.3038 8.39541C17.9898 9.09024 18.5273 9.88649 18.9163 10.7842C19.3054 11.6818 19.5 12.6225 19.5 13.6062C19.5 15.6668 18.7695 17.4142 17.3085 18.8482C15.8477 20.2822 14.0782 20.9992 12 20.9992ZM12 19.4992C13.6667 19.4992 15.0833 18.9299 16.25 17.7914C17.4167 16.6529 18 15.258 18 13.6067C18 12.8225 17.85 12.076 17.55 11.3672C17.25 10.6582 16.8167 10.0367 16.25 9.50291L12 5.29916L7.75 9.50291C7.18333 10.0367 6.75 10.6582 6.45 11.3672C6.15 12.076 6 12.8225 6 13.6067C6 15.258 6.58333 16.6529 7.75 17.7914C8.91667 18.9299 10.3333 19.4992 12 19.4992Z" fill="#F0F0F0"/>
</g>
</svg>
