<svg width="38" height="49" viewBox="0 0 38 49" fill="none" xmlns="http://www.w3.org/2000/svg">
<g clip-path="url(#clip0_921_5)">
<g clip-path="url(#clip1_921_5)">
<path d="M98.7301 38.6354H90.7457V13.8377H77.1097V38.6354H69.1252V5.89621H75.3518L77.1097 8.93049L78.8676 5.89621H90.7292L92.4214 5.88803C94.8693 8.31709 96.2575 9.69111 98.7055 12.1202L98.7301 38.6354Z" fill="white"/>
<path d="M158.54 12.9549C158.516 18.2383 158.491 23.5299 158.458 28.8133V38.6277H166.434C166.426 28.936 166.418 19.2524 166.418 9.56071C165.071 10.1905 163.658 10.8202 162.204 11.45C160.955 11.9898 159.74 12.4887 158.54 12.9549Z" fill="white"/>
<path d="M158.447 10.6974C158.398 10.2558 157.979 5.88837 161.388 2.79684C164.37 0.0978746 168.009 0.416843 168.592 0.474093C168.493 1.47189 168.058 4.43257 165.643 7.05792C162.866 10.084 159.367 10.5911 158.447 10.6974Z" fill="#87C445"/>
<path d="M2.07825 38.7024H37.4907V31.3907H0V36.7968C0 37.8518 0.928232 38.7024 2.07825 38.7024Z" fill="white"/>
<path d="M17.3151 15.294C11.5486 20.6755 5.79026 26.0489 0.0319324 31.4305C3.31771 31.7413 6.60349 32.052 9.89748 32.3628C15.6229 26.6623 21.3566 20.9618 27.0821 15.2612C23.8292 15.2694 20.568 15.2858 17.3151 15.294Z" fill="white"/>
<path d="M12.0189 20.2256C15.4033 20.2092 18.7958 20.1847 22.1802 20.1683C24.3652 17.9846 26.5585 15.7927 28.7435 13.609C25.5317 13.6008 22.3198 13.5927 19.108 13.5927C16.7422 15.7927 14.3847 18.0091 12.0189 20.2256Z" fill="#87C445"/>
<path d="M12.806 5.82322H0.00793329L0.0243619 13.7647C9.55311 13.7565 19.0901 13.7402 28.6188 13.732C31.2475 11.1148 33.8843 8.48946 36.5129 5.87229C28.6106 5.85593 20.7083 5.83957 12.806 5.82322Z" fill="white"/>
<path d="M134.379 10.2233V27.6276C134.379 28.241 134.371 28.8462 134.371 29.4596C134.347 34.5385 138.561 38.6442 143.744 38.6442C143.769 38.6442 143.785 38.6442 143.842 38.6442C146.775 38.6361 150.061 38.6606 153.716 38.726C153.724 36.2561 153.724 33.7943 153.733 31.3243C151.334 31.4306 149.363 31.308 147.95 31.1607C145.543 30.9154 144.795 30.621 144.253 30.0484C143.506 29.2633 143.292 28.0856 143.292 26.548V12.587H144.483V12.5788H149.552V5.97043H143.3V0L138.626 0.0408934L134.396 9.21736C134.404 9.22554 134.379 10.207 134.379 10.2233Z" fill="white"/>
<path d="M153.732 5.97884H147.9V12.579H153.732V5.97884Z" fill="white"/>
<path d="M153.725 11.0579H142.972V13.7323H153.725V11.0579Z" fill="white"/>
<path d="M111.257 31.4876V25.002H127.982C129.658 25.002 131.021 23.6443 131.021 21.9758V10.2067C131.021 8.01485 129.231 6.2319 127.029 6.24008L109.187 6.24825C106.879 8.55464 105.581 9.83869 103.273 12.1451V38.7503H131.03V31.4876H111.257ZM111.2 14.3288C111.2 12.8566 112.547 11.6625 114.206 11.6625H120.507C122.166 11.6625 123.513 12.8566 123.513 14.3288V18.3936H111.2V14.3288Z" fill="white"/>
<path d="M192.261 12.62C192.261 8.24443 189.846 6.06072 185.008 6.06072H178.485C173.647 6.06072 171.232 8.24443 171.232 12.62V32.0362C171.232 36.4118 173.647 38.5955 178.485 38.5955H185.008C189.846 38.5955 192.261 36.4118 192.261 32.0362V27.5952H184.876V30.973C184.876 31.1447 184.868 31.3083 184.852 31.4473H178.773C178.757 31.3001 178.748 31.1447 178.748 30.973V13.7732H184.868V17.0038H192.261V12.62Z" fill="white"/>
</g>
</g>
<defs>
<clipPath id="clip0_921_5">
<rect width="37.9105" height="48.4902" fill="white"/>
</clipPath>
<clipPath id="clip1_921_5">
<rect width="37.9105" height="48.4902" fill="white"/>
</clipPath>
</defs>
</svg>
