<svg width="18" height="18" viewBox="0 0 18 18" fill="none" xmlns="http://www.w3.org/2000/svg">
<mask id="mask0_1_605" style="mask-type:alpha" maskUnits="userSpaceOnUse" x="0" y="0" width="18" height="18">
<rect width="18" height="18" fill="#D9D9D9"/>
</mask>
<g mask="url(#mask0_1_605)">
<path d="M9 11.6177C9.15963 11.6177 9.29325 11.5639 9.40088 11.4563C9.50863 11.3485 9.5625 11.2148 9.5625 11.0552C9.5625 10.8957 9.50863 10.7621 9.40088 10.6543C9.29325 10.5467 9.15963 10.4929 9 10.4929C8.84038 10.4929 8.70675 10.5467 8.59913 10.6543C8.49138 10.7621 8.4375 10.8957 8.4375 11.0552C8.4375 11.2148 8.49138 11.3485 8.59913 11.4563C8.70675 11.5639 8.84038 11.6177 9 11.6177ZM8.4375 9.75H9.5625V6.1875H8.4375V9.75ZM7.26919 16.125L6.98363 13.8403C6.78275 13.7731 6.57675 13.6789 6.36563 13.5578C6.15463 13.4365 5.96594 13.3067 5.79957 13.1683L3.68363 14.0625L1.953 11.0625L3.78319 9.67931C3.76594 9.56781 3.75369 9.45581 3.74644 9.34331C3.73919 9.23081 3.73557 9.11875 3.73557 9.00713C3.73557 8.9005 3.73919 8.79213 3.74644 8.682C3.75369 8.57188 3.76594 8.45144 3.78319 8.32069L1.953 6.9375L3.68363 3.95194L5.79225 4.839C5.97313 4.69575 6.16619 4.56475 6.37144 4.446C6.57669 4.32725 6.77838 4.23181 6.9765 4.15969L7.26919 1.875H10.7308L11.0164 4.16681C11.2414 4.24856 11.4449 4.344 11.6271 4.45312C11.8093 4.56225 11.9933 4.69088 12.1789 4.839L14.3164 3.95194L16.047 6.9375L14.1879 8.34225C14.2148 8.46338 14.2295 8.57663 14.232 8.682C14.2344 8.78725 14.2356 8.89325 14.2356 9C14.2356 9.10187 14.2331 9.2055 14.2283 9.31087C14.2235 9.41613 14.2063 9.53656 14.1765 9.67219L16.0211 11.0625L14.2903 14.0625L12.1789 13.161C11.9933 13.3091 11.8038 13.4401 11.6106 13.554C11.4173 13.668 11.2193 13.7611 11.0164 13.8332L10.7308 16.125H7.26919ZM8.25 15H9.72413L9.99375 12.9909C10.3765 12.8909 10.7263 12.7489 11.043 12.5648C11.3599 12.3805 11.6654 12.1437 11.9597 11.8543L13.8231 12.6375L14.5616 11.3625L12.9347 10.1366C12.9972 9.94238 13.0397 9.75194 13.0622 9.56531C13.0848 9.37881 13.0961 9.19037 13.0961 9C13.0961 8.80475 13.0848 8.61631 13.0622 8.43469C13.0397 8.25294 12.9972 8.06731 12.9347 7.87781L14.5759 6.6375L13.8375 5.3625L11.9524 6.15713C11.7014 5.88888 11.4007 5.65188 11.0503 5.44613C10.6998 5.24038 10.3453 5.09469 9.98663 5.00906L9.75 3H8.26163L8.01338 5.00194C7.63075 5.09231 7.27744 5.23075 6.95344 5.41725C6.62932 5.60387 6.32013 5.84425 6.02588 6.13838L4.1625 5.3625L3.42413 6.6375L5.04375 7.84463C4.98125 8.02263 4.9375 8.20775 4.9125 8.4C4.8875 8.59225 4.875 8.79463 4.875 9.00713C4.875 9.20238 4.8875 9.39375 4.9125 9.58125C4.9375 9.76875 4.97888 9.95387 5.03663 10.1366L3.42413 11.3625L4.1625 12.6375L6.01875 11.85C6.30338 12.1423 6.60769 12.3817 6.93169 12.5683C7.25582 12.7548 7.614 12.8981 8.00625 12.9981L8.25 15Z" fill="#ADB7D2"/>
</g>
</svg>
