<svg width="26" height="32" viewBox="0 0 26 32" fill="none" xmlns="http://www.w3.org/2000/svg">
<path d="M1.22046 26.5379C0.874649 26.5379 0.584794 26.4209 0.350893 26.1869C0.116964 25.9529 0 25.6629 0 25.3169C0 24.971 0.116964 24.6812 0.350893 24.4475C0.584794 24.2138 0.874649 24.097 1.22046 24.097H3.25466V12.2988C3.25466 10.1311 3.93271 8.18826 5.28882 6.47018C6.64493 4.7521 8.40787 3.65314 10.5776 3.17329V2.03416C10.5776 1.46042 10.7732 0.977957 11.1644 0.586774C11.5556 0.195591 12.038 0 12.6118 0C13.1855 0 13.668 0.195591 14.0591 0.586774C14.4503 0.977957 14.6459 1.46042 14.6459 2.03416V3.17329C16.8157 3.65314 18.5786 4.7521 19.9347 6.47018C21.2908 8.18826 21.9689 10.1311 21.9689 12.2988V24.097H24.0031C24.3489 24.097 24.6387 24.214 24.8727 24.448C25.1066 24.6821 25.2235 24.9721 25.2235 25.318C25.2235 25.664 25.1066 25.9538 24.8727 26.1874C24.6387 26.4211 24.3489 26.5379 24.0031 26.5379H1.22046ZM12.6118 31.326C11.8106 31.326 11.1201 31.0412 10.54 30.4717C9.96007 29.9021 9.67008 29.2063 9.67008 28.3843H15.5534C15.5534 29.2063 15.2687 29.9021 14.6991 30.4717C14.1295 31.0412 13.4338 31.326 12.6118 31.326ZM5.69557 24.097H19.528V12.2988C19.528 10.3969 18.8504 8.76868 17.4954 7.41428C16.1404 6.05985 14.5115 5.38264 12.6087 5.38264C10.7059 5.38264 9.07804 6.05985 7.72506 7.41428C6.37207 8.76868 5.69557 10.3969 5.69557 12.2988V24.097Z" fill="#ADB7D2"/>
</svg>
