<svg width="14" height="14" viewBox="0 0 14 14" fill="none" xmlns="http://www.w3.org/2000/svg">
<mask id="mask0_1_1098" style="mask-type:alpha" maskUnits="userSpaceOnUse" x="0" y="0" width="14" height="14">
<rect x="0.00012207" width="13.0233" height="13.0233" fill="#979797"/>
</mask>
<g mask="url(#mask0_1_1098)">
<path d="M2.17078 10.3101V9.2248H3.25605V5.42635C3.25605 4.67571 3.48215 4.00872 3.93434 3.42538C4.38654 2.84205 4.97439 2.45994 5.69791 2.27906V1.89922C5.69791 1.67312 5.77704 1.48094 5.93531 1.32267C6.09358 1.1644 6.28576 1.08527 6.51186 1.08527C6.73796 1.08527 6.93014 1.1644 7.08841 1.32267C7.24668 1.48094 7.32582 1.67312 7.32582 1.89922V2.27906C8.04933 2.45994 8.63719 2.84205 9.08938 3.42538C9.54158 4.00872 9.76768 4.67571 9.76768 5.42635V9.2248H10.8529V10.3101H2.17078ZM6.51186 11.938C6.21341 11.938 5.95792 11.8317 5.74539 11.6192C5.53286 11.4066 5.42659 11.1512 5.42659 10.8527H7.59713C7.59713 11.1512 7.49087 11.4066 7.27834 11.6192C7.0658 11.8317 6.81031 11.938 6.51186 11.938ZM5.96923 7.05426H7.0545V4.34108H5.96923V7.05426ZM6.51186 8.68217C6.66561 8.68217 6.79449 8.63016 6.89849 8.52616C7.0025 8.42215 7.0545 8.29328 7.0545 8.13953C7.0545 7.98578 7.0025 7.85691 6.89849 7.7529C6.79449 7.6489 6.66561 7.59689 6.51186 7.59689C6.35812 7.59689 6.22924 7.6489 6.12523 7.7529C6.02123 7.85691 5.96923 7.98578 5.96923 8.13953C5.96923 8.29328 6.02123 8.42215 6.12523 8.52616C6.22924 8.63016 6.35812 8.68217 6.51186 8.68217Z" fill="#E74739"/>
</g>
</svg>
