<svg width="25" height="25" viewBox="0 0 25 25" fill="none" xmlns="http://www.w3.org/2000/svg">
<mask id="mask0_921_62" style="mask-type:alpha" maskUnits="userSpaceOnUse" x="0" y="0" width="25" height="25">
<rect width="24.5" height="24.5" fill="#D9D9D9"/>
</mask>
<g mask="url(#mask0_921_62)">
<path d="M12.2501 17.3536C12.5394 17.3536 12.7818 17.2558 12.9775 17.0601C13.1731 16.8644 13.271 16.622 13.271 16.3328C13.271 16.0435 13.1731 15.8011 12.9775 15.6054C12.7818 15.4098 12.5394 15.3119 12.2501 15.3119C11.9609 15.3119 11.7185 15.4098 11.5228 15.6054C11.3271 15.8011 11.2293 16.0435 11.2293 16.3328C11.2293 16.622 11.3271 16.8644 11.5228 17.0601C11.7185 17.2558 11.9609 17.3536 12.2501 17.3536ZM12.2501 13.2703C12.5394 13.2703 12.7818 13.1724 12.9775 12.9768C13.1731 12.7811 13.271 12.5387 13.271 12.2494C13.271 11.9602 13.1731 11.7177 12.9775 11.5221C12.7818 11.3264 12.5394 11.2286 12.2501 11.2286C11.9609 11.2286 11.7185 11.3264 11.5228 11.5221C11.3271 11.7177 11.2293 11.9602 11.2293 12.2494C11.2293 12.5387 11.3271 12.7811 11.5228 12.9768C11.7185 13.1724 11.9609 13.2703 12.2501 13.2703ZM12.2501 9.18693C12.5394 9.18693 12.7818 9.0891 12.9775 8.89344C13.1731 8.69778 13.271 8.45533 13.271 8.1661C13.271 7.87686 13.1731 7.63441 12.9775 7.43875C12.7818 7.24309 12.5394 7.14526 12.2501 7.14526C11.9609 7.14526 11.7185 7.24309 11.5228 7.43875C11.3271 7.63441 11.2293 7.87686 11.2293 8.1661C11.2293 8.45533 11.3271 8.69778 11.5228 8.89344C11.7185 9.0891 11.9609 9.18693 12.2501 9.18693ZM20.4168 20.4161H4.08348C3.52202 20.4161 3.04138 20.2162 2.64155 19.8164C2.24172 19.4165 2.04181 18.9359 2.04181 18.3744V14.2911C2.60327 14.2911 3.08391 14.0912 3.48374 13.6914C3.88356 13.2915 4.08348 12.8109 4.08348 12.2494C4.08348 11.688 3.88356 11.2073 3.48374 10.8075C3.08391 10.4077 2.60327 10.2078 2.04181 10.2078V6.12443C2.04181 5.56297 2.24172 5.08233 2.64155 4.6825C3.04138 4.28268 3.52202 4.08276 4.08348 4.08276H20.4168C20.9783 4.08276 21.4589 4.28268 21.8587 4.6825C22.2586 5.08233 22.4585 5.56297 22.4585 6.12443V10.2078C21.897 10.2078 21.4164 10.4077 21.0165 10.8075C20.6167 11.2073 20.4168 11.688 20.4168 12.2494C20.4168 12.8109 20.6167 13.2915 21.0165 13.6914C21.4164 14.0912 21.897 14.2911 22.4585 14.2911V18.3744C22.4585 18.9359 22.2586 19.4165 21.8587 19.8164C21.4589 20.2162 20.9783 20.4161 20.4168 20.4161ZM20.4168 18.3744V15.7713C19.7873 15.397 19.2896 14.8993 18.9238 14.2783C18.558 13.6573 18.3751 12.981 18.3751 12.2494C18.3751 11.5178 18.558 10.8415 18.9238 10.2205C19.2896 9.59952 19.7873 9.10186 20.4168 8.72756V6.12443H4.08348V8.72756C4.71299 9.10186 5.21065 9.59952 5.57644 10.2205C5.94224 10.8415 6.12514 11.5178 6.12514 12.2494C6.12514 12.981 5.94224 13.6573 5.57644 14.2783C5.21065 14.8993 4.71299 15.397 4.08348 15.7713V18.3744H20.4168Z" fill="#F0F0F0"/>
</g>
</svg>
