<svg width="26" height="26" viewBox="0 0 26 26" fill="none" xmlns="http://www.w3.org/2000/svg">
<mask id="mask0_1_788" style="mask-type:alpha" maskUnits="userSpaceOnUse" x="0" y="0" width="26" height="26">
<rect width="25.6032" height="25.6032" fill="#D9D9D9"/>
</mask>
<g mask="url(#mask0_1_788)">
<path d="M10.3807 13.6223C10.1606 13.6223 9.96874 13.5406 9.80517 13.3772C9.64177 13.2136 9.56007 13.0217 9.56007 12.8016C9.56007 12.5815 9.64177 12.3897 9.80517 12.2261C9.96874 12.0627 10.1606 11.981 10.3807 11.981C10.601 11.981 10.7928 12.0627 10.9562 12.2261C11.1196 12.3897 11.2013 12.5815 11.2013 12.8016C11.2013 13.0217 11.1196 13.2136 10.9562 13.3772C10.7928 13.5406 10.601 13.6223 10.3807 13.6223ZM15.2224 13.6223C15.0021 13.6223 14.8102 13.5406 14.6468 13.3772C14.4834 13.2136 14.4017 13.0217 14.4017 12.8016C14.4017 12.5815 14.4834 12.3897 14.6468 12.2261C14.8102 12.0627 15.0021 11.981 15.2224 11.981C15.4425 11.981 15.6343 12.0627 15.7979 12.2261C15.9613 12.3897 16.043 12.5815 16.043 12.8016C16.043 13.0217 15.9613 13.2136 15.7979 13.3772C15.6343 13.5406 15.4425 13.6223 15.2224 13.6223ZM4.80054 21.336V20.2692H5.86734V5.99063C5.86734 5.49954 6.0318 5.08954 6.36073 4.76061C6.68966 4.43168 7.09967 4.26721 7.59075 4.26721H18.0123C18.5034 4.26721 18.9134 4.43168 19.2424 4.76061C19.5713 5.08954 19.7357 5.49954 19.7357 5.99063V20.2692H20.8025V21.336H4.80054ZM6.93414 20.2692H12.2681V5.33401H7.59075C7.42647 5.33401 7.27596 5.40238 7.13923 5.53911C7.0025 5.67583 6.93414 5.82634 6.93414 5.99063V20.2692ZM13.3349 20.2692H18.6689V5.99063C18.6689 5.82634 18.6006 5.67583 18.4639 5.53911C18.3271 5.40238 18.1766 5.33401 18.0123 5.33401H13.3349V20.2692Z" fill="#FFC932"/>
</g>
</svg>
