<svg width="24" height="24" viewBox="0 0 24 24" fill="none" xmlns="http://www.w3.org/2000/svg">
<mask id="mask0_921_35" style="mask-type:alpha" maskUnits="userSpaceOnUse" x="0" y="0" width="24" height="24">
<rect width="24" height="24" fill="#D9D9D9"/>
</mask>
<g mask="url(#mask0_921_35)">
<path d="M22.2359 7.42969V5.92969H21.7359V7.42969H20.6359V5.92969H20.1359V7.42969H19.0359V9.32969C19.0359 10.4297 19.8359 11.3297 20.9359 11.5297V16.7297C20.9359 17.2297 20.5359 17.6297 20.0359 17.6297C19.5359 17.6297 19.1359 17.2297 19.1359 16.7297V15.2297C19.1359 14.4297 18.5359 13.8297 17.7359 13.8297C16.9359 13.8297 16.3359 14.4297 16.3359 15.2297V15.4297C16.3359 15.6297 16.3359 15.9297 16.0359 16.0297C15.8359 16.2297 15.6359 16.2297 15.4359 16.2297H14.4359V5.32969C14.4359 3.72969 13.1359 2.42969 11.5359 2.42969H5.73594C4.13594 2.42969 2.83594 3.82969 2.83594 5.42969V21.5297H14.4359V16.8297H15.4359C15.8359 16.8297 16.1359 16.7297 16.4359 16.4297C16.7359 16.1297 16.8359 15.8297 16.8359 15.4297V15.2297C16.8359 14.7297 17.2359 14.3297 17.7359 14.3297C18.2359 14.3297 18.6359 14.7297 18.6359 15.2297V16.7297C18.6359 17.5297 19.2359 18.1297 20.0359 18.1297C20.8359 18.1297 21.4359 17.5297 21.4359 16.7297V11.5297C22.5359 11.4297 23.3359 10.5297 23.3359 9.32969V7.42969H22.2359ZM5.23594 4.92969H11.8359V7.72969H5.23594V4.92969ZM10.1359 13.7297L6.83594 17.4297L8.13594 14.6297H7.03594L10.3359 11.0297L9.03594 13.8297H10.1359V13.7297ZM22.7359 9.32969C22.7359 10.2297 22.0359 10.9297 21.1359 10.9297C20.2359 10.9297 19.5359 10.2297 19.5359 9.32969V8.02969H22.8359V9.32969H22.7359ZM5.83594 7.12969H11.3359V5.42969H5.83594V7.12969Z" fill="#87C445"/>
<path d="M23.3375 7.02969H22.6375V5.92969C22.6375 5.72969 22.4375 5.52969 22.2375 5.52969H21.7375C21.5375 5.52969 21.3375 5.72969 21.3375 5.92969V7.02969H21.0375V5.92969C21.0375 5.72969 20.8375 5.52969 20.6375 5.52969H20.1375C19.9375 5.52969 19.7375 5.72969 19.7375 5.92969V7.02969H19.0375C18.8375 7.02969 18.6375 7.22969 18.6375 7.42969V9.32969C18.6375 10.5297 19.4375 11.5297 20.5375 11.8297V16.6297C20.5375 16.9297 20.3375 17.1297 20.0375 17.1297C19.7375 17.1297 19.5375 16.9297 19.5375 16.6297V15.1297C19.5375 14.1297 18.7375 13.3297 17.6375 13.3297C16.5375 13.3297 15.8375 14.1297 15.8375 15.1297V15.3297C15.8375 15.4297 15.8375 15.5297 15.7375 15.6297C15.6375 15.7297 15.5375 15.7297 15.4375 15.7297H14.8375V5.22969C14.8375 3.42969 13.3375 1.92969 11.4375 1.92969H5.7375C3.9375 1.92969 2.4375 3.42969 2.4375 5.32969V21.4297C2.4375 21.6297 2.6375 21.8297 2.8375 21.8297H14.4375C14.6375 21.8297 14.8375 21.6297 14.8375 21.4297V17.1297H15.4375C15.9375 17.1297 16.4375 16.9297 16.7375 16.6297C17.0375 16.3297 17.2375 15.8297 17.2375 15.3297V15.1297C17.2375 14.8297 17.4375 14.6297 17.7375 14.6297C18.0375 14.6297 18.2375 14.8297 18.2375 15.1297V16.6297C18.2375 17.6297 19.0375 18.4297 20.0375 18.4297C21.0375 18.4297 21.8375 17.6297 21.8375 16.6297V11.8297C22.9375 11.5297 23.7375 10.5297 23.7375 9.32969V7.42969C23.7375 7.22969 23.5375 7.02969 23.3375 7.02969ZM22.3375 8.42969V9.32969C22.3375 10.0297 21.8375 10.5297 21.1375 10.5297C20.4375 10.5297 19.9375 10.0297 19.9375 9.32969V8.42969H22.4375H22.3375ZM13.9375 16.7297V21.0297H3.2375V5.32969C3.2375 3.92969 4.3375 2.82969 5.7375 2.82969H11.4375C12.8375 2.82969 13.9375 3.92969 13.9375 5.32969V16.2297C13.9375 16.3297 13.9375 16.4297 14.0375 16.5297C14.0375 16.5297 13.9375 16.7297 13.9375 16.8297V16.7297Z" fill="#87C445"/>
</g>
</svg>
