<svg width="17" height="16" viewBox="0 0 17 16" fill="none" xmlns="http://www.w3.org/2000/svg">
<path d="M8.49959 16C8.23187 16 8.00761 15.9148 7.8268 15.7445C7.64599 15.5741 7.55558 15.363 7.55558 15.1111V8.88886H0.944416C0.676823 8.88886 0.452527 8.80365 0.271529 8.63322C0.0905096 8.46277 0 8.25157 0 7.99961C0 7.74764 0.0905096 7.53657 0.271529 7.3664C0.452527 7.19622 0.676823 7.11114 0.944416 7.11114H7.55558V0.888862C7.55558 0.63701 7.64612 0.425898 7.82721 0.255527C8.00831 0.0851754 8.23271 0 8.50041 0C8.76813 0 8.99239 0.0851754 9.1732 0.255527C9.35401 0.425898 9.44442 0.63701 9.44442 0.888862V7.11114H16.0556C16.3232 7.11114 16.5475 7.19635 16.7285 7.36678C16.9095 7.53723 17 7.74843 17 8.00039C17 8.25236 16.9095 8.46343 16.7285 8.6336C16.5475 8.80377 16.3232 8.88886 16.0556 8.88886H9.44442V15.1111C9.44442 15.363 9.35387 15.5741 9.17279 15.7445C8.99169 15.9148 8.76729 16 8.49959 16Z" fill="#ADB7D2"/>
</svg>
