<svg width="14" height="14" viewBox="0 0 14 14" fill="none" xmlns="http://www.w3.org/2000/svg">
<mask id="mask0_1_1083" style="mask-type:alpha" maskUnits="userSpaceOnUse" x="0" y="0" width="14" height="14">
<rect y="0.000183105" width="13.0233" height="13.0233" fill="#D9D9D9"/>
</mask>
<g mask="url(#mask0_1_1083)">
<path d="M1.84494 11.1242C1.73641 11.1242 1.68215 11.1242 1.57362 11.0699C1.51936 11.0699 1.46509 10.9614 1.41083 10.9072C1.41083 10.8529 1.35657 10.7444 1.35657 10.6901C1.35657 10.5816 1.35657 10.5273 1.41083 10.4188L6.0775 2.38777C6.0775 2.27924 6.18602 2.22498 6.24029 2.22498C6.29455 2.22498 6.40308 2.17072 6.45734 2.17072C6.51161 2.17072 6.62013 2.17072 6.6744 2.22498C6.72866 2.22498 6.83719 2.33351 6.83719 2.38777L11.5039 10.4188C11.5039 10.5273 11.5581 10.5816 11.5581 10.6901C11.5581 10.7986 11.5581 10.8529 11.5039 10.9072C11.5039 10.9614 11.3953 11.0157 11.3411 11.0699C11.2868 11.0699 11.1783 11.1242 11.0697 11.1242H1.84494ZM6.51161 9.65909C6.62013 9.65909 6.72866 9.65909 6.83719 9.55056C6.94571 9.44203 6.94571 9.38777 6.94571 9.22498C6.94571 9.06219 6.94571 9.00792 6.83719 8.8994C6.72866 8.79087 6.6744 8.79087 6.51161 8.79087C6.34881 8.79087 6.29455 8.79087 6.18602 8.8994C6.0775 9.00792 6.0775 9.06219 6.0775 9.22498C6.0775 9.38777 6.0775 9.44203 6.18602 9.55056C6.29455 9.65909 6.34881 9.65909 6.51161 9.65909ZM6.51161 8.24823C6.62013 8.24823 6.72866 8.24823 6.78292 8.13971C6.83719 8.08544 6.89145 7.97692 6.89145 7.86839V5.96917C6.89145 5.86064 6.89145 5.75211 6.78292 5.69785C6.72866 5.64358 6.62013 5.58932 6.51161 5.58932C6.40308 5.58932 6.29455 5.58932 6.24029 5.69785C6.18602 5.75211 6.13176 5.86064 6.13176 5.96917V7.86839C6.13176 7.97692 6.13176 8.08544 6.24029 8.13971C6.29455 8.19397 6.40308 8.24823 6.51161 8.24823Z" fill="#FF9500"/>
</g>
</svg>
