<svg width="25" height="123" viewBox="0 0 25 123" fill="none" xmlns="http://www.w3.org/2000/svg">
<g clip-path="url(#clip0_1_1020)">
<path d="M4.85597 63.6754L4.85597 64.9785L1.25684 65.1875L1.25684 63.4664L4.85597 63.6754Z" fill="#212637"/>
<path d="M4.92945 66.9204L5.38684 67.6826L3.38482 71.2109L2.77747 70.2151L4.92945 66.9204Z" fill="#212637"/>
<path d="M5.38947 60.7735L4.93208 61.5234L2.7876 58.241L3.39495 57.2575L5.38947 60.7735Z" fill="#212637"/>
<path d="M20.4009 63.6754L20.4009 64.9785L24 65.1875L24 63.4664L20.4009 63.6754Z" fill="#212637"/>
<path d="M20.3274 66.9204L19.87 67.6826L21.872 71.2109L22.4794 70.2151L20.3274 66.9204Z" fill="#212637"/>
<path d="M19.8674 60.7735L20.3248 61.5234L22.4692 58.241L21.8619 57.2575L19.8674 60.7735Z" fill="#212637"/>
<path d="M12 32.959L12 -4.04102" stroke="#212637" stroke-width="2.49612"/>
<path d="M12 132.959V83.959" stroke="#212637" stroke-width="2.49612"/>
<path d="M16.3721 31.875C17.7506 31.875 18.8682 32.9925 18.8682 34.3711V45.125C18.8959 45.2058 18.9111 45.304 18.9111 45.4102V56.5791L17.6826 62.4336L15.5225 56.1875H15.46L13.4072 63.3105L11.0791 56.1875H10.8477L8.9541 61.6553L6.14062 56.3486V56.1875H6.06543V34.3711C6.06544 32.9926 7.18302 31.8751 8.56152 31.875H16.3721Z" fill="#212637"/>
<path d="M8.60352 94.8398C7.2251 94.8397 6.10744 93.7222 6.10742 92.3438V80.7949C6.0802 80.7146 6.06448 80.6176 6.06445 80.5127V69.3438L6.96777 61.6914L9.45605 69.7344H9.51855L11.5078 63.4072L13.8701 69.7344H14.1621L16.2578 64.9648L18.835 69.5732V69.7344H18.9102V92.3438C18.9101 93.7223 17.7926 94.8398 16.4141 94.8398H8.60352Z" fill="#212637"/>
</g>
<defs>
<clipPath id="clip0_1_1020">
<rect width="25" height="123" fill="white"/>
</clipPath>
</defs>
</svg>
